<svg xmlns="http://www.w3.org/2000/svg" version="1.1" xmlns:xlink="http://www.w3.org/1999/xlink" xmlns:svgjs="http://svgjs.dev/svgjs" width="1000" height="1000" viewBox="0 0 1000 1000"><rect width="1000" height="1000" fill="#000000"></rect><g transform="matrix(0.7,0,0,0.7,149.5757661238373,427.181324616166)"><svg viewBox="0 0 396 82" data-background-color="#ffffff" preserveAspectRatio="xMidYMid meet" height="207" width="1000" xmlns="http://www.w3.org/2000/svg" xmlns:xlink="http://www.w3.org/1999/xlink"><g id="tight-bounds" transform="matrix(1,0,0,1,0.23999516422918532,0.20863625119187645)"><svg viewBox="0 0 395.52 81.58272757576195" height="81.58272757576195" width="395.52"><g><svg viewBox="0 0 527.7726591634573 108.86208807258242" height="81.58272757576195" width="395.52"><g transform="matrix(1,0,0,1,132.25265916345737,15.045339234343885)"><svg viewBox="0 0 395.52 78.77140960389465" height="78.77140960389465" width="395.52"><g id="textblocktransform"><svg viewBox="0 0 395.52 78.77140960389465" height="78.77140960389465" width="395.52" id="textblock"><g><svg viewBox="0 0 395.52 78.77140960389465" height="78.77140960389465" width="395.52"><g transform="matrix(1,0,0,1,0,0)"><svg width="395.52" viewBox="1.7999999523162842 -35.5 225.92999267578125 45" height="78.77140960389465" data-palette-color="#374151"><path d="M16.05 0.5L16.05 0.5Q11.4 0.5 8.28-0.88 5.15-2.25 3.53-4.48 1.9-6.7 1.8-9.15L1.8-9.15Q1.8-9.6 2.1-9.9 2.4-10.2 2.85-10.2L2.85-10.2 7.3-10.2Q7.95-10.2 8.28-9.93 8.6-9.65 8.85-9.25L8.85-9.25Q9.15-8.3 10-7.38 10.85-6.45 12.33-5.85 13.8-5.25 16.05-5.25L16.05-5.25Q19.65-5.25 21.43-6.45 23.2-7.65 23.2-9.7L23.2-9.7Q23.2-11.15 22.25-12.03 21.3-12.9 19.33-13.63 17.35-14.35 14.1-15.15L14.1-15.15Q10.35-16.05 7.83-17.32 5.3-18.6 4.03-20.55 2.75-22.5 2.75-25.5L2.75-25.5Q2.75-28.4 4.33-30.65 5.9-32.9 8.83-34.2 11.75-35.5 15.8-35.5L15.8-35.5Q19.05-35.5 21.55-34.63 24.05-33.75 25.7-32.33 27.35-30.9 28.23-29.28 29.1-27.65 29.15-26.1L29.15-26.1Q29.15-25.7 28.88-25.38 28.6-25.05 28.1-25.05L28.1-25.05 23.45-25.05Q23.05-25.05 22.65-25.25 22.25-25.45 22-26L22-26Q21.7-27.55 20.05-28.65 18.4-29.75 15.8-29.75L15.8-29.75Q13.1-29.75 11.45-28.75 9.8-27.75 9.8-25.65L9.8-25.65Q9.8-24.25 10.63-23.33 11.45-22.4 13.28-21.7 15.1-21 18.1-20.2L18.1-20.2Q22.35-19.25 25.05-18 27.75-16.75 29-14.83 30.25-12.9 30.25-9.95L30.25-9.95Q30.25-6.65 28.48-4.33 26.7-2 23.5-0.75 20.3 0.5 16.05 0.5ZM41.1 0L36.65 0Q36.15 0 35.8-0.35 35.45-0.7 35.45-1.2L35.45-1.2 35.45-34.3Q35.45-34.8 35.8-35.15 36.15-35.5 36.65-35.5L36.65-35.5 41.1-35.5Q41.65-35.5 41.97-35.15 42.3-34.8 42.3-34.3L42.3-34.3 42.3-22.9Q43.65-24.5 45.6-25.5 47.55-26.5 50.4-26.5L50.4-26.5Q53.45-26.5 55.72-25.13 58-23.75 59.25-21.25 60.5-18.75 60.5-15.25L60.5-15.25 60.5-1.2Q60.5-0.7 60.15-0.35 59.8 0 59.3 0L59.3 0 54.8 0Q54.3 0 53.95-0.35 53.6-0.7 53.6-1.2L53.6-1.2 53.6-14.95Q53.6-17.85 52.17-19.5 50.75-21.15 48.05-21.15L48.05-21.15Q45.45-21.15 43.87-19.5 42.3-17.85 42.3-14.95L42.3-14.95 42.3-1.2Q42.3-0.7 41.97-0.35 41.65 0 41.1 0L41.1 0ZM78.35 0.5L78.35 0.5Q74.35 0.5 71.62-0.9 68.9-2.3 67.47-4.85 66.05-7.4 65.85-10.8L65.85-10.8Q65.8-11.7 65.8-13 65.8-14.3 65.85-15.2L65.85-15.2Q66.05-18.65 67.52-21.18 69-23.7 71.72-25.1 74.45-26.5 78.35-26.5L78.35-26.5Q82.25-26.5 84.97-25.1 87.7-23.7 89.17-21.18 90.65-18.65 90.85-15.2L90.85-15.2Q90.9-14.3 90.9-13 90.9-11.7 90.85-10.8L90.85-10.8Q90.65-7.4 89.22-4.85 87.8-2.3 85.07-0.9 82.35 0.5 78.35 0.5ZM78.35-4.45L78.35-4.45Q81-4.45 82.45-6.13 83.9-7.8 84.05-11.05L84.05-11.05Q84.1-11.8 84.1-13 84.1-14.2 84.05-14.95L84.05-14.95Q83.9-18.2 82.45-19.88 81-21.55 78.35-21.55L78.35-21.55Q75.7-21.55 74.25-19.88 72.8-18.2 72.65-14.95L72.65-14.95Q72.6-14.2 72.6-13 72.6-11.8 72.65-11.05L72.65-11.05Q72.8-7.8 74.25-6.13 75.7-4.45 78.35-4.45ZM101.94 9.5L97.69 9.5Q97.19 9.5 96.84 9.15 96.49 8.8 96.49 8.3L96.49 8.3 96.49-24.8Q96.49-25.3 96.84-25.65 97.19-26 97.69-26L97.69-26 101.64-26Q102.19-26 102.52-25.65 102.84-25.3 102.84-24.8L102.84-24.8 102.84-22.8Q104.04-24.4 105.99-25.45 107.94-26.5 110.84-26.5L110.84-26.5Q113.49-26.5 115.44-25.65 117.39-24.8 118.69-23.23 119.99-21.65 120.69-19.5 121.39-17.35 121.49-14.75L121.49-14.75Q121.54-13.9 121.54-13 121.54-12.1 121.49-11.2L121.49-11.2Q121.44-8.7 120.74-6.58 120.04-4.45 118.72-2.88 117.39-1.3 115.44-0.4 113.49 0.5 110.84 0.5L110.84 0.5Q108.14 0.5 106.24-0.48 104.34-1.45 103.14-3.05L103.14-3.05 103.14 8.3Q103.14 8.8 102.82 9.15 102.49 9.5 101.94 9.5L101.94 9.5ZM108.99-4.85L108.99-4.85Q111.14-4.85 112.34-5.78 113.54-6.7 114.09-8.2 114.64-9.7 114.74-11.5L114.74-11.5Q114.79-13 114.74-14.5L114.74-14.5Q114.64-16.3 114.09-17.8 113.54-19.3 112.34-20.23 111.14-21.15 108.99-21.15L108.99-21.15Q106.94-21.15 105.67-20.2 104.39-19.25 103.82-17.78 103.24-16.3 103.14-14.75L103.14-14.75Q103.09-13.85 103.09-12.85 103.09-11.85 103.14-10.9L103.14-10.9Q103.19-9.4 103.84-8.03 104.49-6.65 105.74-5.75 106.99-4.85 108.99-4.85ZM141.24 0.5L141.24 0.5Q136.59 0.5 133.37-1.13 130.14-2.75 128.44-5.78 126.74-8.8 126.54-13.05L126.54-13.05Q126.49-15.1 126.49-17.45 126.49-19.8 126.54-21.95L126.54-21.95Q126.74-26.15 128.47-29.2 130.19-32.25 133.42-33.88 136.64-35.5 141.24-35.5L141.24-35.5Q144.64-35.5 147.34-34.6 150.04-33.7 151.94-32.13 153.84-30.55 154.89-28.45 155.94-26.35 155.99-23.9L155.99-23.9Q156.04-23.45 155.72-23.15 155.39-22.85 154.94-22.85L154.94-22.85 150.19-22.85Q149.64-22.85 149.29-23.13 148.94-23.4 148.79-24.05L148.79-24.05Q147.99-27.35 146.04-28.55 144.09-29.75 141.19-29.75L141.19-29.75Q137.84-29.75 135.84-27.88 133.84-26 133.69-21.7L133.69-21.7Q133.54-17.6 133.69-13.3L133.69-13.3Q133.84-9 135.84-7.13 137.84-5.25 141.19-5.25L141.19-5.25Q144.09-5.25 146.07-6.48 148.04-7.7 148.79-10.95L148.79-10.95Q148.94-11.65 149.29-11.9 149.64-12.15 150.19-12.15L150.19-12.15 154.94-12.15Q155.39-12.15 155.72-11.85 156.04-11.55 155.99-11.1L155.99-11.1Q155.94-8.65 154.89-6.55 153.84-4.45 151.94-2.88 150.04-1.3 147.34-0.4 144.64 0.5 141.24 0.5ZM168.89 0.5L168.89 0.5Q166.29 0.5 164.19-0.53 162.09-1.55 160.86-3.28 159.64-5 159.64-7.15L159.64-7.15Q159.64-10.65 162.49-12.73 165.34-14.8 169.94-15.5L169.94-15.5 176.79-16.5 176.79-17.55Q176.79-19.65 175.74-20.8 174.69-21.95 172.14-21.95L172.14-21.95Q170.34-21.95 169.21-21.23 168.09-20.5 167.54-19.3L167.54-19.3Q167.14-18.65 166.39-18.65L166.39-18.65 162.44-18.65Q161.89-18.65 161.61-18.95 161.34-19.25 161.34-19.75L161.34-19.75Q161.39-20.55 162.01-21.7 162.64-22.85 163.91-23.93 165.19-25 167.24-25.75 169.29-26.5 172.19-26.5L172.19-26.5Q175.34-26.5 177.51-25.73 179.69-24.95 180.99-23.65 182.29-22.35 182.89-20.6 183.49-18.85 183.49-16.9L183.49-16.9 183.49-1.2Q183.49-0.7 183.14-0.35 182.79 0 182.29 0L182.29 0 178.24 0Q177.69 0 177.36-0.35 177.04-0.7 177.04-1.2L177.04-1.2 177.04-3.15Q176.39-2.25 175.29-1.4 174.19-0.55 172.61-0.03 171.04 0.5 168.89 0.5ZM170.59-4.25L170.59-4.25Q172.34-4.25 173.76-5 175.19-5.75 176.01-7.33 176.84-8.9 176.84-11.3L176.84-11.3 176.84-12.35 171.84-11.55Q168.89-11.1 167.44-10.1 165.99-9.1 165.99-7.65L165.99-7.65Q165.99-6.55 166.66-5.78 167.34-5 168.39-4.63 169.44-4.25 170.59-4.25ZM195.44 0L191.09 0Q190.59 0 190.24-0.35 189.89-0.7 189.89-1.2L189.89-1.2 189.89-24.75Q189.89-25.3 190.24-25.65 190.59-26 191.09-26L191.09-26 195.14-26Q195.64-26 196.01-25.65 196.39-25.3 196.39-24.75L196.39-24.75 196.39-22.7Q197.54-24.3 199.36-25.15 201.19-26 203.59-26L203.59-26 205.64-26Q206.19-26 206.51-25.65 206.84-25.3 206.84-24.8L206.84-24.8 206.84-21.2Q206.84-20.7 206.51-20.35 206.19-20 205.64-20L205.64-20 201.74-20Q199.34-20 198.01-18.68 196.69-17.35 196.69-14.95L196.69-14.95 196.69-1.2Q196.69-0.7 196.34-0.35 195.99 0 195.44 0L195.44 0ZM226.53 0L222.48 0Q219.48 0 217.43-1.05 215.38-2.1 214.38-4.17 213.38-6.25 213.38-9.35L213.38-9.35 213.38-20.7 209.43-20.7Q208.93-20.7 208.58-21.05 208.23-21.4 208.23-21.95L208.23-21.95 208.23-24.8Q208.23-25.3 208.58-25.65 208.93-26 209.43-26L209.43-26 213.38-26 213.38-34.3Q213.38-34.8 213.71-35.15 214.03-35.5 214.58-35.5L214.58-35.5 218.63-35.5Q219.13-35.5 219.48-35.15 219.83-34.8 219.83-34.3L219.83-34.3 219.83-26 226.08-26Q226.58-26 226.93-25.65 227.28-25.3 227.28-24.8L227.28-24.8 227.28-21.95Q227.28-21.4 226.93-21.05 226.58-20.7 226.08-20.7L226.08-20.7 219.83-20.7 219.83-9.85Q219.83-7.8 220.56-6.65 221.28-5.5 223.08-5.5L223.08-5.5 226.53-5.5Q227.03-5.5 227.38-5.15 227.73-4.8 227.73-4.3L227.73-4.3 227.73-1.2Q227.73-0.7 227.38-0.35 227.03 0 226.53 0L226.53 0Z" opacity="1" transform="matrix(1,0,0,1,0,0)" fill="#ffffff" class="undefined-text-0" data-fill-palette-color="primary" id="text-0"></path></svg></g></svg></g></svg></g></svg></g><g><svg viewBox="0 0 113.65661986980834 108.86208807258242" height="108.86208807258242" width="113.65661986980834"><g><svg xmlns="http://www.w3.org/2000/svg" xmlns:xlink="http://www.w3.org/1999/xlink" version="1.1" x="0" y="0" viewBox="0.5719999670982361 1.6030000448226929 48.85499954223633 46.79408264160156" enable-background="new 0 0 50 50" xml:space="preserve" height="108.86208807258242" width="113.65661986980834" class="icon-icon-0" data-fill-palette-color="accent" id="icon-0"><g fill="#374151" data-fill-palette-color="accent"><g fill="#374151" data-fill-palette-color="accent"><g fill="#374151" data-fill-palette-color="accent"><line fill="#ffffff" x1="42.187" y1="30.881" x2="16.181" y2="39.004" data-fill-palette-color="accent"></line><polygon fill="#ffffff" points="41.73,29.426 15.726,37.543 16.637,40.461 42.643,32.338    " data-fill-palette-color="accent"></polygon></g><g fill="#374151" data-fill-palette-color="accent"><path fill="#ffffff" d="M18.572 42.535c0.061 0.605-0.122 1.195-0.513 1.664-0.388 0.471-0.934 0.756-1.539 0.814-1.254 0.119-2.364-0.807-2.485-2.057-0.055-0.605 0.129-1.199 0.516-1.666 0.388-0.469 0.935-0.758 1.542-0.813 0.607-0.059 1.196 0.123 1.666 0.514C18.229 41.379 18.515 41.926 18.572 42.535zM15.808 37.434c-1.421 0.137-2.701 0.816-3.609 1.91-0.905 1.096-1.334 2.48-1.201 3.9 0.276 2.928 2.881 5.082 5.807 4.811 1.42-0.133 2.7-0.811 3.605-1.908 0.913-1.098 1.338-2.482 1.204-3.898-0.13-1.416-0.811-2.699-1.907-3.607C18.611 37.732 17.226 37.303 15.808 37.434z" data-fill-palette-color="accent"></path></g><g fill="#374151" data-fill-palette-color="accent"><line fill="#ffffff" x1="13.436" y1="30.992" x2="39.554" y2="39.439" data-fill-palette-color="accent"></line><rect x="12.773" y="33.689" transform="matrix(-0.9514 -0.3078 0.3078 -0.9514 40.8641 76.8801)" fill="#ffffff" width="27.446" height="3.055" data-fill-palette-color="accent"></rect></g><g fill="#374151" data-fill-palette-color="accent"><path fill="#ffffff" d="M32.707 42.547c-0.14 1.416 0.282 2.803 1.186 3.902 0.902 1.1 2.179 1.783 3.599 1.922 2.926 0.289 5.538-1.857 5.828-4.781 0.286-2.928-1.862-5.541-4.786-5.83-1.416-0.137-2.801 0.281-3.903 1.188C33.529 39.846 32.847 41.129 32.707 42.547zM38.236 40.795c1.249 0.127 2.167 1.244 2.044 2.494-0.123 1.248-1.241 2.168-2.491 2.049-0.604-0.063-1.15-0.357-1.538-0.824-0.388-0.473-0.565-1.068-0.505-1.674 0.058-0.604 0.353-1.148 0.822-1.537C37.034 40.918 37.63 40.738 38.236 40.795z" data-fill-palette-color="accent"></path></g><g fill="#374151" data-fill-palette-color="accent"><polygon fill="#ffffff" points="11.115,19.867 5.497,2.681 5.155,1.64 4.058,1.63 0.6,1.603 0.572,4.656 4.033,4.685 2.594,3.63      8.214,20.812    " data-fill-palette-color="accent"></polygon></g><g fill="#374151" data-fill-palette-color="accent"><polygon fill="#ffffff" points="17.158,26.744 37.898,26.744 40.767,19.382 15.07,19.474    " data-fill-palette-color="accent"></polygon><path fill="#ffffff" d="M5.756 13.544L12.45 32.75l29.955-0.223 7.022-18.983H5.756zM40.365 28.826l-0.379 0.973h-1.044H16.009h-1.149l-0.318-1.104L11.579 18.38l-0.558-1.939 2.021-0.008 29.954-0.109 2.243-0.01-0.815 2.088L40.365 28.826z" data-fill-palette-color="accent"></path></g></g><g fill="#374151" data-fill-palette-color="accent"><path fill-rule="evenodd" clip-rule="evenodd" fill="#ffffff" d="M32.577 11.763h3.868L32.577 8.57l-3.866-3.191L24.847 8.57l-3.865 3.193h3.81H32.577z" data-fill-palette-color="accent"></path></g></g></svg></g></svg></g></svg></g><defs></defs></svg><rect width="395.52" height="81.58272757576195" fill="none" stroke="none" visibility="hidden"></rect></g></svg></g></svg>